# xmcd CD database file
#
# Track frame offsets:
#	150
#	11250
#	26100
#	43950
#	53400
#	62887
#	79500
#	91800
#	115500
#	127950
#	142875
#	158475
#	170587
#
# Disc length: 2661 seconds
#
# Revision: 0
# Processed by: cddbd v1.5.1PL0 Copyright (c) Steve Scherf et al.
# Submitted via: CDex 1.51
#
DISCID=940a630d
DTITLE=Charlie Rousse/Julius Watkins - Les Jazz Modes
DYEAR=1956
DGENRE=Jazz
TTITLE0=Dancing on the Ceiling
TTITLE1=Legend
TTITLE2=Temptation
TTITLE3=Episode
TTITLE4=Dancing in the Dark
TTITLE5=Goodbye
TTITLE6=Baubles, Bangles, and Beads
TTITLE7=Autumn Leaves
TTITLE8=Golden Chariot
TTITLE9=Let's Try
TTITLE10=Bohemia
TTITLE11=Catch Her
TTITLE12=Hoo-Tai
EXTD=YEAR: 1956
EXTT0=
EXTT1=
EXTT2=
EXTT3=
EXTT4=
EXTT5=
EXTT6=
EXTT7=
EXTT8=
EXTT9=
EXTT10=
EXTT11=
EXTT12=
PLAYORDER=
